<svg id="Layer_1" data-name="Layer 1" xmlns="http://www.w3.org/2000/svg" width="50" height="50" viewBox="0 0 50 50"><title>content</title><path d="M44.3,17.8a3.08,3.08,0,0,0-.1-4.24L36.82,6.18a3.07,3.07,0,0,0-4.34,0L5.66,33V44.72H17.38L41.1,21l-9-8.82-23.35,24,6,6L38.05,18.29" fill="none" stroke="#ff901e" stroke-miterlimit="10"/><path d="M45.42,18.78a1.51,1.51,0,1,1,0-2.13A1.5,1.5,0,0,1,45.42,18.78Z" fill="#ff901e"/><polyline points="21.62 11.83 5.66 11.83 5.66 26.85" fill="none" stroke="#1d90cd" stroke-miterlimit="10"/><circle cx="5.66" cy="26.77" r="1.5" fill="#1d90cd"/><polyline points="22.1 44.72 38.55 44.72 38.55 29.17" fill="none" stroke="#1d90cd" stroke-miterlimit="10"/><path d="M40.05,29.25a1.51,1.51,0,1,0-1.5,1.5A1.5,1.5,0,0,0,40.05,29.25Z" fill="#1d90cd"/><line x1="5.66" y1="39.56" x2="10.72" y2="44.61" fill="none" stroke="#ff901e" stroke-miterlimit="10"/><line x1="17.38" y1="44.72" x2="5.66" y2="33" fill="none" stroke="#ff901e" stroke-miterlimit="10"/></svg>