<svg id="Layer_1" data-name="Layer 1" xmlns="http://www.w3.org/2000/svg" width="50" height="50" viewBox="0 0 50 50"><title>cro</title><path d="M30.29,26.15c4.82-.76,8.18-2.49,8.18-4.52,0-2.73-6.12-5-13.67-5s-13.68,2.2-13.68,4.93,6.11,5,13.67,5q.84,0,1.65,0" fill="none" stroke="#1d90cd" stroke-miterlimit="10"/><path d="M26.42,28a1.5,1.5,0,1,0-1.56-1.44A1.51,1.51,0,0,0,26.42,28Z" fill="#1d90cd"/><path d="M31,34.59s12.44-8,12.44-12.93c0-4.33-8.23-7.85-18.39-7.87S6.6,16.18,6.6,21.61c0,4.95,13.34,14.17,13.34,14.17s.27,7.75.26,10.44c0,1,2.14,1.74,4.78,1.74s4.77-.77,4.77-1.72,0-5.58,0-8" fill="none" stroke="#1d90cd" stroke-miterlimit="10"/><path d="M31.27,38.35a1.5,1.5,0,1,0-1.5,1.5A1.51,1.51,0,0,0,31.27,38.35Z" fill="#1d90cd"/><line x1="13.72" y1="7.44" x2="18.78" y2="21.61" fill="none" stroke="#ff901e" stroke-miterlimit="10"/><path d="M12.33,8a1.5,1.5,0,1,1,1.92.91A1.5,1.5,0,0,1,12.33,8Z" fill="#ff901e"/><line x1="35.87" y1="7.44" x2="30.81" y2="21.61" fill="none" stroke="#ff901e" stroke-miterlimit="10"/><path d="M34.43,7a1.5,1.5,0,1,1,.91,1.92A1.5,1.5,0,0,1,34.43,7Z" fill="#ff901e"/><line x1="24.79" y1="22.75" x2="24.79" y2="2.61" fill="none" stroke="#ff901e" stroke-miterlimit="10" stroke-width="0.75"/><circle cx="24.79" cy="2.67" r="1.13" fill="#ff901e"/><line x1="24.79" y1="22.75" x2="24.79" y2="2.97" fill="none" stroke="#ff901e" stroke-miterlimit="10"/><circle cx="24.79" cy="3.04" r="1.5" fill="#ff901e"/></svg>