<svg id="Layer_1" data-name="Layer 1" xmlns="http://www.w3.org/2000/svg" width="120" height="50" viewBox="0 0 120 50"><title>logo</title><path d="M65.32,25.16a2.11,2.11,0,1,1-2.1-2.11A2.1,2.1,0,0,1,65.32,25.16Z" fill="#1d90cd"/><path d="M59.51,18.76a2.11,2.11,0,1,1-2.1-2.11A2.1,2.1,0,0,1,59.51,18.76Z" fill="#1d90cd"/><path d="M33.58,18.76a2.11,2.11,0,1,1-2.11-2.11A2.1,2.1,0,0,1,33.58,18.76Z" fill="#1d90cd"/><path d="M25.84,26.5a2.11,2.11,0,1,1-2.11-2.11A2.11,2.11,0,0,1,25.84,26.5Z" fill="#1d90cd"/><path d="M9.19,26.5a2.11,2.11,0,1,1-2.1-2.11A2.1,2.1,0,0,1,9.19,26.5Z" fill="#1d90cd"/><rect x="7.09" y="25.72" width="16.65" height="1.55" fill="#1d90cd"/><line x1="23.73" y1="26.5" x2="31.47" y2="18.76" fill="#1d90cd"/><rect x="22.13" y="21.85" width="10.95" height="1.55" transform="translate(-7.91 26.15) rotate(-45.01)" fill="#1d90cd"/><rect x="31.47" y="17.98" width="25.94" height="1.55" fill="#1d90cd"/><line x1="57.41" y1="18.76" x2="63.22" y2="24.95" fill="#1d90cd"/><rect x="59.54" y="17.61" width="1.55" height="8.49" transform="translate(1.37 47.16) rotate(-43.15)" fill="#1d90cd"/><path d="M73.06,25.16A2.11,2.11,0,1,1,71,23.05,2.1,2.1,0,0,1,73.06,25.16Z" fill="#1d90cd"/><rect x="62.92" y="24.38" width="8.04" height="1.55" fill="#1d90cd"/><path d="M91.92,4.86a2.11,2.11,0,1,1-2.1-2.1A2.1,2.1,0,0,1,91.92,4.86Z" fill="#1d90cd"/><path d="M80.42,16.15a2.11,2.11,0,1,1-2.11-2.1A2.1,2.1,0,0,1,80.42,16.15Z" fill="#1d90cd"/><line x1="78.31" y1="16.15" x2="70.96" y2="25.16" fill="#1d90cd"/><rect x="68.82" y="19.88" width="11.63" height="1.55" transform="translate(11.42 65.39) rotate(-50.75)" fill="#1d90cd"/><line x1="78.31" y1="16.15" x2="89.82" y2="4.86" fill="#1d90cd"/><rect x="76.01" y="9.73" width="16.12" height="1.55" transform="translate(16.69 61.87) rotate(-44.44)" fill="#1d90cd"/><path d="M36,39.3a7.86,7.86,0,1,1,7.84,7.94A7.91,7.91,0,0,1,36,39.3Zm12.36.05a4.5,4.5,0,1,0-4.52,4.52A4.53,4.53,0,0,0,48.34,39.35Z" fill="#fff"/><path d="M57.07,43.65H59v3.2H51.56v-3.2h2.08V30H51.7V26.8h5.37Z" fill="#fff"/><path d="M103.7,44.6a5.67,5.67,0,0,1-4.92,2.47,7.74,7.74,0,0,1,0-15.47,6.26,6.26,0,0,1,5,2.45V30h-2V26.8h5.39V43.65h1.94v3.2H103.7Zm.08-5.3a4.54,4.54,0,1,0-4.55,4.63A4.58,4.58,0,0,0,103.78,39.3Z" fill="#fff"/><path d="M14.84,43.1a4.32,4.32,0,0,1-3.06,1.14,4.63,4.63,0,0,1-4.49-3.6H19.42l.11-1.2a7.86,7.86,0,0,0-2.1-5.62,8,8,0,0,0-5.62-2.41,7.92,7.92,0,0,0,.09,15.83,7.68,7.68,0,0,0,6.76-4.14Zm-3.2-8.63A4.79,4.79,0,0,1,16.36,38H7.26A4.64,4.64,0,0,1,11.64,34.47Z" fill="#fff"/><polygon points="69.64 31.86 69.64 35.06 66.69 42.64 66.67 42.64 63.95 35.14 63.91 35.14 63.91 31.86 58.44 31.86 58.44 35.06 60.27 35.06 64.87 46.85 68.46 46.85 73.18 35.06 74.95 35.06 74.95 31.86 69.64 31.86" fill="#fff"/><path d="M85.67,43.1a4.28,4.28,0,0,1-3,1.14,4.63,4.63,0,0,1-4.49-3.6H90.26l.11-1.2a7.86,7.86,0,0,0-2.1-5.62,8,8,0,0,0-5.62-2.41,7.92,7.92,0,0,0,.08,15.83A7.69,7.69,0,0,0,89.5,43.1Zm-3.19-8.63A4.79,4.79,0,0,1,87.2,38H78.1A4.64,4.64,0,0,1,82.48,34.47Z" fill="#fff"/><polygon points="30.7 31.86 30.7 35.06 27.75 42.64 27.72 42.64 25 35.14 24.97 35.14 24.97 31.86 19.5 31.86 19.5 35.06 21.32 35.06 25.92 46.85 29.52 46.85 34.23 35.06 36 35.06 36 31.86 30.7 31.86" fill="#fff"/><path d="M116,45.14a2.1,2.1,0,1,1-2.1-2.11A2.1,2.1,0,0,1,116,45.14Z" fill="#1d90cd"/></svg>