<svg id="Layer_1" data-name="Layer 1" xmlns="http://www.w3.org/2000/svg" width="160" height="60" viewBox="0 0 160 60"><title>mattressonline</title><path d="M36.56,30A15.8,15.8,0,1,1,20.82,14.2,15.82,15.82,0,0,1,36.56,30ZM13.73,23.8l-.12-.38a1.57,1.57,0,0,0-1-1,2.3,2.3,0,0,0-1-.09,2,2,0,0,0-1.12.57,2.2,2.2,0,0,0-.62,1.36c0,.15,0,.31,0,.46V35.42c0,.14,0,.29,0,.43a2.07,2.07,0,0,0,.13.7,2,2,0,0,0,1.32,1.26,2.19,2.19,0,0,0,1,0,1.86,1.86,0,0,0,1-.53,2,2,0,0,0,.5-.85,2.92,2.92,0,0,0,.12-.83V28.56a4.26,4.26,0,0,1,.07-.87,2.84,2.84,0,0,1,.43-1.12,1.76,1.76,0,0,1,1.08-.79,3,3,0,0,1,1.29-.08,2.08,2.08,0,0,1,1.16.61,2.51,2.51,0,0,1,.51.78,3.14,3.14,0,0,1,.24,1.09c0,.16,0,.33,0,.5v7.09a2.54,2.54,0,0,0,.13.73,2,2,0,0,0,1.35,1.32,2.1,2.1,0,0,0,1.19,0,1.89,1.89,0,0,0,1.25-1.09,2.3,2.3,0,0,0,.2-.81c0-.17,0-.33,0-.5v-7a4.13,4.13,0,0,1,.11-.86,2.67,2.67,0,0,1,.47-1,2.09,2.09,0,0,1,1.14-.77,2.57,2.57,0,0,1,1.17,0,2,2,0,0,1,1.05.51,2.64,2.64,0,0,1,.45.55A3.06,3.06,0,0,1,27.6,28c0,.22,0,.43,0,.65v6.66c0,.12,0,.23,0,.34a3.31,3.31,0,0,0,.09.77,2,2,0,0,0,1.37,1.41,2.17,2.17,0,0,0,1,.06,1.91,1.91,0,0,0,1.44-1.07,2,2,0,0,0,.21-.71,5.32,5.32,0,0,0,0-.69V28.15c0-.37,0-.74,0-1.12a7.07,7.07,0,0,0-.27-1.43,4.53,4.53,0,0,0-1.94-2.51,5.38,5.38,0,0,0-1.38-.63,6.55,6.55,0,0,0-1.87-.26,4.14,4.14,0,0,0-1,.08,5.89,5.89,0,0,0-1.72.61A6.62,6.62,0,0,0,22,24.06c-.22.22-.18.21-.38,0a5.72,5.72,0,0,0-1.14-1,5.06,5.06,0,0,0-2.55-.82,5.24,5.24,0,0,0-1.76.16A5.1,5.1,0,0,0,14,23.61l-.2.19Z" fill="#fff"/><path d="M43.94,26.19l.08,0L44.2,26a3.17,3.17,0,0,1,1.67-.79,3.4,3.4,0,0,1,3.07,1.06l.15.16a.09.09,0,0,0,.13,0l.18-.17a4.42,4.42,0,0,1,1.16-.77,4.05,4.05,0,0,1,1.17-.31,1.86,1.86,0,0,1,.41,0,4.26,4.26,0,0,1,1.31.24l.4.16a3,3,0,0,1,1.64,2.15,5.88,5.88,0,0,1,.1,1.11v4.79a3.52,3.52,0,0,1,0,.56,1.37,1.37,0,0,1-.18.49,1.17,1.17,0,0,1-.95.58,1.47,1.47,0,0,1-.55-.05,1.22,1.22,0,0,1-.79-.7A1.43,1.43,0,0,1,53,34V29.28a3.07,3.07,0,0,0-.06-.68,2,2,0,0,0-.33-.7,1.39,1.39,0,0,0-1-.53,2.13,2.13,0,0,0-.56,0,1.37,1.37,0,0,0-.84.59,1.85,1.85,0,0,0-.32.9c0,.16,0,.31,0,.47v4.29a2.65,2.65,0,0,1-.05.56,1.28,1.28,0,0,1-.35.68,1.16,1.16,0,0,1-.75.34,1.43,1.43,0,0,1-.58,0,1.25,1.25,0,0,1-.85-.89,1.38,1.38,0,0,1-.06-.46V29.4c0-.15,0-.3,0-.44a2,2,0,0,0-.37-1,1.36,1.36,0,0,0-.76-.51l-.06,0a2.25,2.25,0,0,0-.93.05,1.2,1.2,0,0,0-.7.53,2,2,0,0,0-.3,1c0,.13,0,.27,0,.4v4.33a2.24,2.24,0,0,1-.06.58,1.44,1.44,0,0,1-.19.46,1.17,1.17,0,0,1-.91.52,1.32,1.32,0,0,1-.56,0,1.27,1.27,0,0,1-.88-1,2.59,2.59,0,0,1,0-.56V26.83a2.38,2.38,0,0,1,0-.53,1.3,1.3,0,0,1,.54-.81,1.2,1.2,0,0,1,.64-.22,1.72,1.72,0,0,1,.55.06,1,1,0,0,1,.67.61A1.12,1.12,0,0,0,43.94,26.19Z" fill="#fff"/><path d="M66,30.35v3.33c0,.14,0,.27,0,.4a1.73,1.73,0,0,1-.23.77.84.84,0,0,1-.62.43,2.29,2.29,0,0,1-.74,0A1,1,0,0,1,63.8,35a1.79,1.79,0,0,1-.25-.42,2.34,2.34,0,0,1-.09-.24.08.08,0,0,0-.11,0l-.13.13a4.06,4.06,0,0,1-.5.43,3,3,0,0,1-1.34.54,4.2,4.2,0,0,1-1.12,0,4,4,0,0,1-2.42-1.3,4.76,4.76,0,0,1-1.15-2.17,6.55,6.55,0,0,1-.15-2.25,5.73,5.73,0,0,1,.32-1.42,5.1,5.1,0,0,1,1.38-2,3.89,3.89,0,0,1,1.84-.93,3.57,3.57,0,0,1,2,.14,2.71,2.71,0,0,1,1.14.78l.08.09c.06.07.11.06.14,0a.83.83,0,0,1,0-.15,1.28,1.28,0,0,1,1.18-.82,1.61,1.61,0,0,1,.49.06.79.79,0,0,1,.52.37,1.69,1.69,0,0,1,.26.82c0,.13,0,.27,0,.4Zm-2.65-.15a3,3,0,0,0-.09-.71,3.45,3.45,0,0,0-.53-1.15,1.58,1.58,0,0,0-.93-.63,2.12,2.12,0,0,0-.83,0,1.71,1.71,0,0,0-1.19.73,3.07,3.07,0,0,0-.45,1,3.52,3.52,0,0,0,0,1.93,3.22,3.22,0,0,0,.5,1.06,1.62,1.62,0,0,0,.9.62L61,33a1.94,1.94,0,0,0,.83-.07,1.61,1.61,0,0,0,.85-.6,3.22,3.22,0,0,0,.58-1.42A2.26,2.26,0,0,0,63.31,30.2Z" fill="#fff"/><path d="M92.51,31.19H89.58a.13.13,0,0,0-.07.09,2,2,0,0,0,.78,1.34,2.72,2.72,0,0,0,1.32.49,3.19,3.19,0,0,0,.69,0A2.92,2.92,0,0,0,93,33a6.2,6.2,0,0,0,.79-.36l.63-.34a1.65,1.65,0,0,1,.44-.16.78.78,0,0,1,.54.08,1.22,1.22,0,0,1,.64.73,1,1,0,0,1,0,.73,1.27,1.27,0,0,1-.31.42,2.37,2.37,0,0,1-.59.45,6.72,6.72,0,0,1-1.93.77,6.64,6.64,0,0,1-2,.12A4.68,4.68,0,0,1,87,32a5.11,5.11,0,0,1-.21-1.29,6.18,6.18,0,0,1,.06-1.21,5.37,5.37,0,0,1,1.55-3,4.26,4.26,0,0,1,2.23-1.16,7.93,7.93,0,0,1,.84-.07,4.5,4.5,0,0,1,1.5.21,3.79,3.79,0,0,1,1.38.75,5.8,5.8,0,0,1,1.48,1.86,4.56,4.56,0,0,1,.38,1.05,4.75,4.75,0,0,1,.1,1,2.2,2.2,0,0,1,0,.37.88.88,0,0,1-.82.7H92.51Zm-3.05-1.77.09,0h4l.09,0s0,0,0,0a.48.48,0,0,0,0-.12A2.52,2.52,0,0,0,93,28a1.86,1.86,0,0,0-.88-.51,2.48,2.48,0,0,0-.77-.06,1.85,1.85,0,0,0-1.23.52,2.32,2.32,0,0,0-.65,1.15A.63.63,0,0,0,89.46,29.42Z" fill="#fff"/><path d="M100.64,25.25a5.06,5.06,0,0,1,2,.4,4.58,4.58,0,0,1,.69.37,1.65,1.65,0,0,1,.36.34,1.23,1.23,0,0,1,0,1.62.94.94,0,0,1-.8.33.9.9,0,0,1-.33-.09c-.15,0-.29-.12-.43-.18l-.71-.31a2.17,2.17,0,0,0-.79-.18,1.11,1.11,0,0,0-.57.1.61.61,0,0,0-.41.66.51.51,0,0,0,.1.29,1.32,1.32,0,0,0,.26.22,4.35,4.35,0,0,0,.75.37l.53.2.89.37a5.87,5.87,0,0,1,1.26.78,2,2,0,0,1,.78,1.33,3.12,3.12,0,0,1,0,1.18,2.81,2.81,0,0,1-.7,1.26,3.56,3.56,0,0,1-1.74,1,5.39,5.39,0,0,1-1.79.11,5.62,5.62,0,0,1-2.18-.69,3.46,3.46,0,0,1-.47-.31,1.56,1.56,0,0,1-.36-.41,1.1,1.1,0,0,1-.13-.81l0-.09a1.74,1.74,0,0,1,.43-.6.94.94,0,0,1,.63-.24,1.65,1.65,0,0,1,.75.17l.69.35.36.18a2.2,2.2,0,0,0,1.13.19,2,2,0,0,0,.42-.06.64.64,0,0,0,.47-.53.58.58,0,0,0-.23-.6l-.21-.14a4.22,4.22,0,0,0-.68-.32l-1.1-.42a6,6,0,0,1-1.62-1,1.92,1.92,0,0,1-.67-1c0-.1-.05-.2-.07-.3a3.19,3.19,0,0,1,.19-1.62,2.56,2.56,0,0,1,.55-.83,3.38,3.38,0,0,1,1.59-.93A4.54,4.54,0,0,1,100.64,25.25Z" fill="#fff"/><path d="M108.8,25.25a4.94,4.94,0,0,1,2,.46,4.68,4.68,0,0,1,.54.3,1.67,1.67,0,0,1,.39.36,1.26,1.26,0,0,1-.07,1.63,1,1,0,0,1-.78.31,1.06,1.06,0,0,1-.36-.09l-.43-.19-.68-.3a2.28,2.28,0,0,0-.82-.18,1.14,1.14,0,0,0-.6.12.64.64,0,0,0-.37.57.55.55,0,0,0,.12.37.91.91,0,0,0,.24.2,4.12,4.12,0,0,0,.66.34l.61.23.78.32a6.53,6.53,0,0,1,1.41.85,2,2,0,0,1,.78,1.46,3.16,3.16,0,0,1-.06,1,2.6,2.6,0,0,1-.53,1.08,3.42,3.42,0,0,1-1.45,1,4.7,4.7,0,0,1-1.34.27,5.93,5.93,0,0,1-3.27-.81,2.28,2.28,0,0,1-.48-.39,1.28,1.28,0,0,1-.31-.57,1,1,0,0,1,0-.58,1.67,1.67,0,0,1,.39-.56,1,1,0,0,1,.68-.26,1.82,1.82,0,0,1,.83.21l.58.31.36.18a2.43,2.43,0,0,0,1,.2,2.31,2.31,0,0,0,.37,0,1.09,1.09,0,0,0,.24-.07.58.58,0,0,0,.36-.4,1.16,1.16,0,0,0,0-.18.6.6,0,0,0-.12-.41.88.88,0,0,0-.24-.19,4.35,4.35,0,0,0-.75-.37l-1.08-.42a6,6,0,0,1-1.63-.95,1.93,1.93,0,0,1-.74-1.22,2.4,2.4,0,0,1-.05-.46,3.53,3.53,0,0,1,.07-.86,2.7,2.7,0,0,1,.7-1.27,3.3,3.3,0,0,1,1.56-.91A4.69,4.69,0,0,1,108.8,25.25Z" fill="#fff"/><path d="M68.5,31V28c0-.22,0-.23-.23-.23h-.41l-.28,0a.94.94,0,0,1-.77-.72,1.32,1.32,0,0,1,0-.71,1.07,1.07,0,0,1,1-.82h.56a.11.11,0,0,0,.12-.11,2.18,2.18,0,0,0,0-.25V24a2.42,2.42,0,0,1,0-.38,1.26,1.26,0,0,1,.42-.84,1.22,1.22,0,0,1,.81-.33,1.07,1.07,0,0,1,.4,0,1.19,1.19,0,0,1,.82.66,1.29,1.29,0,0,1,.15.54c0,.11,0,.22,0,.34v1.3c0,.11.05.15.16.15H72a1.52,1.52,0,0,1,.73.25.72.72,0,0,1,.29.35,1.44,1.44,0,0,1,0,1.06.81.81,0,0,1-.33.4,1.61,1.61,0,0,1-.8.23h-.71s-.09,0-.09.07,0,.07,0,.1v5.72c0,.15,0,.29,0,.44a1.25,1.25,0,0,1-.14.5,1.16,1.16,0,0,1-1,.71,1.44,1.44,0,0,1-.62,0,1.26,1.26,0,0,1-.86-1.08,2.75,2.75,0,0,1,0-.41Z" fill="#fff"/><path d="M75.55,31V28.1c0-.37,0-.35-.36-.35h-.31a1.76,1.76,0,0,1-.31,0,.91.91,0,0,1-.67-.59,1.24,1.24,0,0,1,0-.85,1.08,1.08,0,0,1,1-.8h.47l.15,0a.1.1,0,0,0,.06-.07,1.5,1.5,0,0,0,0-.22v-1.3a1.49,1.49,0,0,1,.07-.52,1.3,1.3,0,0,1,2.46-.07,1.05,1.05,0,0,1,.08.36c0,.13,0,.27,0,.4v1.09c0,.09,0,.17,0,.25a.11.11,0,0,0,.09.08h.77a1.56,1.56,0,0,1,.63.17.87.87,0,0,1,.5.63,1.55,1.55,0,0,1,0,.77.81.81,0,0,1-.39.5,1.6,1.6,0,0,1-.77.22h-.62l-.12,0a0,0,0,0,0,0,0,.14.14,0,0,0,0,.09v5.75a5.25,5.25,0,0,1,0,.56,1.31,1.31,0,0,1-.34.72,1.15,1.15,0,0,1-.73.37,1.58,1.58,0,0,1-.65,0A1.36,1.36,0,0,1,75.55,34V31Z" fill="#fff"/><path d="M151.18,30.91h-2.89c-.22,0-.25,0-.22.26a3.48,3.48,0,0,0,1.06,2.22,2.81,2.81,0,0,0,1.43.71h.06a3.5,3.5,0,0,0,1.94-.34,5.61,5.61,0,0,0,1.13-.82,1.81,1.81,0,0,1,.21-.18.65.65,0,0,1,.73-.08.39.39,0,0,1,.22.28.76.76,0,0,1-.13.68,2.61,2.61,0,0,1-.42.46,4.41,4.41,0,0,1-1.08.66,4.5,4.5,0,0,1-1.25.37,5.19,5.19,0,0,1-1.42,0,5,5,0,0,1-1-.2,3.82,3.82,0,0,1-1.89-1.35,4.85,4.85,0,0,1-.81-1.7,6.05,6.05,0,0,1-.18-2.16,5.44,5.44,0,0,1,.73-2.32A4,4,0,0,1,149,25.89a3.49,3.49,0,0,1,1.57-.43,4.17,4.17,0,0,1,.5,0,3.81,3.81,0,0,1,3,1.59,4.23,4.23,0,0,1,.63,1.21,5.76,5.76,0,0,1,.3,1.8,2.62,2.62,0,0,1,0,.28.63.63,0,0,1-.51.52,1.58,1.58,0,0,1-.43.05h-2.9Zm-.37-1.09h2.68q.12,0,.12-.15s0-.08,0-.12,0-.21,0-.31a3.93,3.93,0,0,0-.62-1.58,2.53,2.53,0,0,0-3.58-.65,2.57,2.57,0,0,0-.57.57,3.5,3.5,0,0,0-.59,1.25,3.73,3.73,0,0,0-.14.8c0,.16,0,.19.17.19h2.58Z" fill="#fff"/><path d="M83.71,26.37a.25.25,0,0,0,.09,0l.13-.17a3.83,3.83,0,0,1,.28-.29,1.85,1.85,0,0,1,1.35-.53,1.17,1.17,0,0,1,.46.07,1.28,1.28,0,0,1,.73.64,1.63,1.63,0,0,1,.1.95.61.61,0,0,1-.27.43,2.89,2.89,0,0,1-.6.32l-.56.22a6.92,6.92,0,0,0-1.19.66,1.23,1.23,0,0,0-.53.94,2.41,2.41,0,0,0,0,.38v3.82a2.09,2.09,0,0,1-.06.56,1.45,1.45,0,0,1-.11.29,1.17,1.17,0,0,1-1,.68,1.4,1.4,0,0,1-.61,0,1.24,1.24,0,0,1-.84-.93,1.76,1.76,0,0,1-.06-.46V26.8a2.81,2.81,0,0,1,0-.5,1,1,0,0,1,.34-.58,1.44,1.44,0,0,1,1-.38,1.88,1.88,0,0,1,.78.16.74.74,0,0,1,.45.56C83.66,26.16,83.69,26.26,83.71,26.37Z" fill="#fff"/><path d="M121.5,30.34a6.3,6.3,0,0,1-.26,1.89,4.45,4.45,0,0,1-.66,1.37,3.66,3.66,0,0,1-2.31,1.51,4.6,4.6,0,0,1-1.48.07,4.46,4.46,0,0,1-.73-.13,3.73,3.73,0,0,1-2-1.34,4.66,4.66,0,0,1-.8-1.7,6.72,6.72,0,0,1-.18-2.32,5.63,5.63,0,0,1,.55-2,4.28,4.28,0,0,1,.43-.72,3.78,3.78,0,0,1,2.22-1.46,3,3,0,0,1,.67-.09c.19,0,.38,0,.56,0a3.74,3.74,0,0,1,3,1.56,4.4,4.4,0,0,1,.78,1.65A5.93,5.93,0,0,1,121.5,30.34Zm-1.41-.07a6.51,6.51,0,0,0-.1-1,4.45,4.45,0,0,0-.47-1.37,2.79,2.79,0,0,0-.7-.83,2.07,2.07,0,0,0-.88-.43c-.12,0-.25,0-.37-.06a2.84,2.84,0,0,0-1,.07,2.11,2.11,0,0,0-.9.47,2.81,2.81,0,0,0-.76,1,4.79,4.79,0,0,0-.43,1.7,5.8,5.8,0,0,0,.12,1.86,4.26,4.26,0,0,0,.48,1.24,2.64,2.64,0,0,0,.75.81,2.08,2.08,0,0,0,.82.36,2.82,2.82,0,0,0,1,0,2.07,2.07,0,0,0,1.09-.42,2.69,2.69,0,0,0,.76-.85,3.76,3.76,0,0,0,.32-.74A5.69,5.69,0,0,0,120.09,30.27Z" fill="#fff"/><path d="M122.61,30.32V26.46c0-.12,0-.23,0-.34a.81.81,0,0,1,.08-.34.5.5,0,0,1,.45-.32.81.81,0,0,1,.22,0,.51.51,0,0,1,.47.35,1,1,0,0,1,.08.39c0,.15,0,.29,0,.44l0,0h0l0,0,.08-.1a3.53,3.53,0,0,1,.77-.67,2.71,2.71,0,0,1,1.23-.4,3.39,3.39,0,0,1,.78,0,3.45,3.45,0,0,1,2.22,1,3,3,0,0,1,.89,1.9c0,.23,0,.46,0,.69,0,1.72,0,3.44,0,5.16a2.32,2.32,0,0,1,0,.46.61.61,0,0,1-.78.51.56.56,0,0,1-.46-.45,2.09,2.09,0,0,1,0-.43V29.08c0-.15,0-.29,0-.44a2,2,0,0,0-1.41-1.85,2.75,2.75,0,0,0-1.77,0,2.26,2.26,0,0,0-1.58,1.8,3.07,3.07,0,0,0-.06.68c0,1.65,0,3.3,0,5,0,.11,0,.23,0,.34a1.07,1.07,0,0,1-.06.3.52.52,0,0,1-.38.34.7.7,0,0,1-.43,0,.5.5,0,0,1-.34-.29.8.8,0,0,1-.08-.33c0-.12,0-.23,0-.34Z" fill="#fff"/><path d="M138,30.32V26.15a.88.88,0,0,1,.07-.33.53.53,0,0,1,.47-.36,1,1,0,0,1,.24,0,.52.52,0,0,1,.42.29.73.73,0,0,1,.09.32c0,.16,0,.32,0,.47a.27.27,0,0,0,0,.12s0,0,0,0a1.59,1.59,0,0,0,.13-.13,3.45,3.45,0,0,1,.77-.66,2.61,2.61,0,0,1,1.26-.41,4.3,4.3,0,0,1,.62,0,3.6,3.6,0,0,1,2,.67,3.06,3.06,0,0,1,1.29,2.18,5.07,5.07,0,0,1,0,.68v5.26a2,2,0,0,1,0,.49,1.6,1.6,0,0,1-.1.23.6.6,0,0,1-.27.2.82.82,0,0,1-.49,0,.51.51,0,0,1-.29-.23.72.72,0,0,1-.1-.29c0-.15,0-.31,0-.47V28.9a3.36,3.36,0,0,0-.08-.71,2,2,0,0,0-1-1.24,2.39,2.39,0,0,0-.58-.22,2.87,2.87,0,0,0-1.51,0,2.24,2.24,0,0,0-1.57,1.58,2.69,2.69,0,0,0-.12.85v5.11a2.72,2.72,0,0,1,0,.28.57.57,0,0,1,0,.18.57.57,0,0,1-.59.46.66.66,0,0,1-.33-.07.55.55,0,0,1-.27-.29.93.93,0,0,1-.07-.33v-4.2Z" fill="#fff"/><path d="M131.77,28.1V21.73a.86.86,0,0,1,.08-.36.53.53,0,0,1,.46-.33h.22a.52.52,0,0,1,.44.3.82.82,0,0,1,.09.33c0,.11,0,.21,0,.31V34.27c0,.1,0,.2,0,.31a.73.73,0,0,1-.09.32.5.5,0,0,1-.33.27.67.67,0,0,1-.42,0,.53.53,0,0,1-.37-.31,1,1,0,0,1-.08-.33V28.1Z" fill="#fff"/><path d="M136.18,30.34V34.2c0,.12,0,.23,0,.34a1.84,1.84,0,0,1-.05.25.55.55,0,0,1-.46.41.69.69,0,0,1-.45-.06.47.47,0,0,1-.25-.27.73.73,0,0,1-.08-.33c0-.1,0-.2,0-.31V26.14a1,1,0,0,1,.08-.33.52.52,0,0,1,.47-.35,1,1,0,0,1,.24,0,.48.48,0,0,1,.4.27.6.6,0,0,1,.1.32c0,.12,0,.25,0,.37Z" fill="#fff"/><path d="M136.42,23a.88.88,0,0,1-.88.89.89.89,0,1,1,0-1.77A.87.87,0,0,1,136.42,23Z" fill="#fff"/></svg>