<svg id="Layer_1" data-name="Layer 1" xmlns="http://www.w3.org/2000/svg" width="160" height="60" viewBox="0 0 160 60"><title>moneyguru</title><path d="M110,13.81c.15.06.29.14.44.19a2.08,2.08,0,0,1,.93,3.41c-.53.61-1.44,1.09-1.6,1.77s.46,1.47.67,2.24a8.05,8.05,0,0,1-1.24,7l-.42.65c.55.35,1.08.66,1.58,1,2.41,1.78,4,4,3.83,7.18a8,8,0,0,1-3.15,6c-4.72,4-12.81,3.9-17.44-.16a7.76,7.76,0,0,1-3-6.22,2.09,2.09,0,0,1,4.17-.15,4.48,4.48,0,0,0,2,3.53,10.14,10.14,0,0,0,11,.1c1.38-1,2.33-2.2,2-4a4,4,0,0,0-1.58-2.47,9,9,0,0,0-5.74-1.93,8.28,8.28,0,0,1-8.21-6.22,7.89,7.89,0,0,1,2.59-8.35A7.91,7.91,0,0,1,105.59,16a1.25,1.25,0,0,0,1.59-.35c.71-.67,1.54-1.22,2.32-1.82Zm-3.53,9.81a4,4,0,0,0-4.08-4.05,4,4,0,1,0,0,8.09A4,4,0,0,0,106.46,23.62Z" fill="#fff"/><path d="M5,17.05a2.55,2.55,0,0,1,1.68-1.71c1.11-.27,2,.19,2.64,1.48a5.66,5.66,0,0,1,4.38-1.71,5.9,5.9,0,0,1,4.22,2.15,6.86,6.86,0,0,1,5.38-2.14,5.36,5.36,0,0,1,5.3,5.47c0,3,0,6,0,9a2.19,2.19,0,1,1-4.36,0c0-2.43,0-4.86,0-7.3A6.63,6.63,0,0,0,24,20.6a2.38,2.38,0,0,0-2.48-1.82,2.42,2.42,0,0,0-2.39,1.93A6.36,6.36,0,0,0,19,22.15c0,2.49,0,5,0,7.46a2.14,2.14,0,0,1-2.84,2.18,2.19,2.19,0,0,1-1.52-2.24c0-2.46,0-4.92,0-7.38a5.76,5.76,0,0,0-.2-1.6,2.39,2.39,0,0,0-2.65-1.79,2.3,2.3,0,0,0-2.25,2.06,7.84,7.84,0,0,0-.12,1.37c0,2.38,0,4.76,0,7.14,0,1.42-.56,2.24-1.7,2.49s-2-.21-2.57-1.55c0,0-.08-.07-.12-.1Z" fill="#fff"/><path d="M67.91,25a3.52,3.52,0,0,0,3.77,3.17,8.89,8.89,0,0,0,2.66-.59,18.13,18.13,0,0,0,1.81-.92,1.71,1.71,0,0,1,2.29.57,1.73,1.73,0,0,1-.15,2.3,7.49,7.49,0,0,1-4,2.13c-3.32.82-6.42.47-8.83-2.16a8.48,8.48,0,0,1-1.68-8.86A7.64,7.64,0,0,1,70,15.2a8.05,8.05,0,0,1,9,6.54A7,7,0,0,1,79.18,23c0,1.39-.53,2-1.94,2-2.49,0-5,0-7.49,0Zm-.06-3h6.84a3.42,3.42,0,0,0-6.84,0Z" fill="#fff"/><path d="M38,15.11a8,8,0,0,1,7.81,7.19c.36,3.24-.43,6.1-3.07,8.17a7.41,7.41,0,0,1-7.82,1,7.6,7.6,0,0,1-4.7-6.34,8.68,8.68,0,0,1,2.86-8.19A7.16,7.16,0,0,1,38,15.11Zm3.68,8.55a16,16,0,0,0-.93-2.86,3.09,3.09,0,0,0-5.49-.07,5.42,5.42,0,0,0,0,5.7,3.1,3.1,0,0,0,5.5,0A15.17,15.17,0,0,0,41.69,23.66Z" fill="#fff"/><path d="M51.75,16.73c2.11-2.5,7.61-2.11,9.28.91a6.78,6.78,0,0,1,.88,3c.11,3,.05,5.94,0,8.91a2.17,2.17,0,0,1-2.11,2.39,2.21,2.21,0,0,1-2.25-2.36c0-1.62,0-3.24,0-4.86,0-1,0-2,0-3a2.86,2.86,0,1,0-5.71,0c0,2.59,0,5.19,0,7.78a2.22,2.22,0,0,1-1.51,2.34,2.16,2.16,0,0,1-2.86-2.16c0-1.68,0-3.35,0-5,0-2.32,0-4.65,0-7A2.17,2.17,0,0,1,50,15.3C50.75,15.38,51.15,15.68,51.75,16.73Z" fill="#fff"/><path d="M86.5,25.06c.59-1.5,1.13-2.84,1.66-4.19s1-2.72,1.6-4.06a2.23,2.23,0,0,1,2.42-1.51,2.06,2.06,0,0,1,1.62,3c-1,2.43-2,4.86-2.93,7.28-1.44,3.55-2.86,7.1-4.31,10.65a6,6,0,0,1-.78,1.4,2.17,2.17,0,0,1-2.74.41,1.77,1.77,0,0,1-.88-2.28C82.71,34.19,83.4,32.64,84,31a1.83,1.83,0,0,0,0-1.2c-1.48-3.77-3-7.52-4.51-11.28-.57-1.42-.32-2.38.71-3a2.2,2.2,0,0,1,3.27,1.3c.89,2.34,1.73,4.7,2.6,7.06C86.17,24.27,86.3,24.59,86.5,25.06Z" fill="#fff"/><path d="M127.28,22a35.64,35.64,0,0,1,0,4.85,5.58,5.58,0,0,1-5.43,5.09,15.19,15.19,0,0,1-4.66-.32A5.39,5.39,0,0,1,113,26.16c0-2.89,0-5.78,0-8.67a2,2,0,0,1,1.19-2,2.08,2.08,0,0,1,2.23.22,2.52,2.52,0,0,1,.89,2.17c0,2.51,0,5,0,7.53a2.74,2.74,0,0,0,2.88,3,2.8,2.8,0,0,0,2.9-3c0-2.59,0-5.19,0-7.78a2.14,2.14,0,0,1,3-2.17,2.22,2.22,0,0,1,1.3,2.16c0,.73,0,1.46,0,2.19V22Z" fill="#fff"/><path d="M140.62,22c0-1.43,0-2.86,0-4.29a2.13,2.13,0,1,1,4.24-.09c0,2.35,0,4.7,0,7.06a10.76,10.76,0,0,0,0,1.13A2.75,2.75,0,0,0,148,28.45a2.81,2.81,0,0,0,2.74-2.93c0-2.57,0-5.14,0-7.71A2.2,2.2,0,0,1,152,15.5a2.11,2.11,0,0,1,3,2c.06,3.21.07,6.44-.16,9.64-.19,2.48-2.31,4.3-5.18,4.72a9.51,9.51,0,0,1-6-.75,5.37,5.37,0,0,1-3-4.7c-.07-1.48,0-3,0-4.46Z" fill="#fff"/><path d="M133.74,16.82a13.77,13.77,0,0,1,2.54-1.4A2.08,2.08,0,0,1,139,17.61a1.44,1.44,0,0,1-.9,1.41c-.82.36-1.64.7-2.45,1.07a3,3,0,0,0-2,3.13c.07,2.1,0,4.21,0,6.32a2.11,2.11,0,0,1-2.51,2.26,2,2,0,0,1-1.77-2c0-4.19,0-8.38,0-12.57a2,2,0,0,1,2-1.92,1.94,1.94,0,0,1,2.32,1.41C133.74,16.82,133.77,16.91,133.74,16.82Z" fill="#fff"/></svg>