<svg id="Layer_1" data-name="Layer 1" xmlns="http://www.w3.org/2000/svg" width="50" height="50" viewBox="0 0 50 50"><title>outreach</title><path d="M29,18.51a6.7,6.7,0,1,1,3.24,13l-.05,0c2.25,5.3,5.21,8.66,7.54,8.09,3.13-.78,3.93-8.44,1.77-17.11S35.06,7.45,31.92,8.23,28,16.67,30.14,25.33c.18.73.38,1.45.59,2.14" fill="none" stroke="#ff901e" stroke-miterlimit="10"/><path d="M29.3,27.81a1.51,1.51,0,1,0,1-1.87A1.51,1.51,0,0,0,29.3,27.81Z" fill="#ff901e"/><path d="M28.35,44.16l.74,3L16.86,43.84l-1.54-6.19c10.2,2.1,23,8.31,26.75,7.38,5-1.23,6.65-11.69,3.75-23.35s-8-20.42-14.25-18.87S13.4,24,3.8,26.33c-1.1.28-1.37,3-.62,6s2.25,5.26,3.34,5A13.29,13.29,0,0,1,10.07,37" fill="none" stroke="#1d90cd" stroke-miterlimit="10"/><path d="M10,38.51A1.5,1.5,0,1,0,8.5,37,1.49,1.49,0,0,0,10,38.51Z" fill="#1d90cd"/></svg>