<svg id="Layer_1" data-name="Layer 1" xmlns="http://www.w3.org/2000/svg" width="50" height="50" viewBox="0 0 50 50"><title>ppc</title><polyline points="37.28 45.78 33.84 37.31 40.76 37.32 24.74 20.86 24.74 44.89 30.17 39.29 32.93 46.12" fill="none" stroke="#1d90cd" stroke-miterlimit="10"/><path d="M31.51,46.61a1.51,1.51,0,1,0,.83-2A1.51,1.51,0,0,0,31.51,46.61Z" fill="#1d90cd"/><path d="M19.56,32.55A11.12,11.12,0,1,1,35.2,26.42" fill="none" stroke="#ff901e" stroke-miterlimit="10"/><path d="M20.12,31.13a1.5,1.5,0,1,1-2,.74A1.5,1.5,0,0,1,20.12,31.13Z" fill="#ff901e"/><path d="M21.36,41.12A19.27,19.27,0,1,1,42,31.31" fill="none" stroke="#1d90cd" stroke-miterlimit="10"/><path d="M40.65,30.5a1.5,1.5,0,0,0,2.64,1.44,1.52,1.52,0,0,0-.6-2A1.5,1.5,0,0,0,40.65,30.5Z" fill="#1d90cd"/></svg>