<svg id="Layer_1" data-name="Layer 1" xmlns="http://www.w3.org/2000/svg" width="160" height="60" viewBox="0 0 160 60"><title>samurai</title><path d="M81.37,26.55C79,33.3,79.05,39.6,83.08,45.42L90.77,44c-.26-2.71-.88-5.61-.73-8.46s1.08-5.73,1.75-9l4,2.88c-1.07,3.28-2.26,6.33-3,9.48-.43,1.85-1,3.86.22,5.85.3.47-.73,1.77-1.16,2.71a36.11,36.11,0,0,0-4.69-1.13,25.7,25.7,0,0,0-4.44.28,24.46,24.46,0,0,1-17,8.2,24.69,24.69,0,0,1-20.21-8,2.29,2.29,0,0,1-.65-1.22c-.2-2.1-.3-4.21-.47-6.87,1.73.6,3.08,1.11,4.46,1.53a6.33,6.33,0,0,1,4.81,5.31,13.16,13.16,0,0,0,1.2,2.74c1.2-3.68-1.29-17-4.77-20.91l-2.16,1.34,1.05-2.46A30.9,30.9,0,0,0,40.61,38c-3.43-5.84-2.38-18.83,6.51-26.72a25.43,25.43,0,0,1,34,.39c9.14,8.54,10.62,23.22,3,32.84-.72-3.2-1.32-6.12-.35-9.14.52-1.63,1-3.28,1.69-4.85.58-1.32.24-2-1.06-2.5C83.45,27.6,82.5,27.08,81.37,26.55ZM60.45,27.67l.64-.25c1.43,2.69,3.17,5.28,4.16,8.13.49,1.44-.39,3.35-.66,5.11l1.34-1c0,1.36,0,2.44,0,3.52s.1,2,.17,3.31c4.82-4.15,4.8-4.14,3.1-9.36a2,2,0,0,1,.32-1.72c1.45-1.2,3-2.23,4.58-3.32,2.43,4.91.63,9.24-1,13.63l4,1.71c2.09-5.78,1.57-11-1.79-15.79,1.5-1.41,1.49-2.94-.07-5.94l-7.94,7.08L60.6,26.31c-4,6.45-5.61,17.07-2.29,21.94l4.42-2.17A28,28,0,0,1,60.45,27.67Z" fill="#fff"/><path d="M130,47.66c-.36-.86-.74-1.72-1.09-2.58-.52-1.26-.68-3.13-1.61-3.66-2.23-1.26-4.83-1.88-7.71-2.92.13,2,.13,3.51.36,5,.28,1.77,0,3.05-2,3.67a18,18,0,0,0-2.48,1.25C114,39.31,118,32.53,124.07,26.51l-1.15,2.56,2.59-1.67c3.84,6.22,4.78,13.08,5,20.12Zm-3.8-9.45.53-.52L122.34,31l-.82.23-2,6.31Z" fill="#fff"/><path d="M100.56,30c2.06-3.41,4.77-4.81,8.31-2.8,2.65,1.5,2.44,4.26,2.53,6.9-.78-.83-1.54-1.69-2.35-2.5a7.21,7.21,0,0,0-8.56-1.13c-.55.35-.76,1.51-.79,2.31,0,1.24-.16,3.33.41,3.58a12.68,12.68,0,0,0,5.65,1c1.39-.06,2.74-1.09,4.62-1.91l-2.55,4.27c2.85,1.38,4.52,3.79,5.3,7.13l-3.32.56c-.74-2-1.4-3.87-2.18-5.72a1.88,1.88,0,0,0-2.78-1.14c-1.52.62-2.58.26-3.07-1.53-.21-.75-1-1.35-1.52-2l-.58.28c.49,1.64.92,3.3,1.49,4.91,1.42,4,1.45,4-2.71,5.3-2.19-4.44-2.41-13.58,1.58-19.9l.1,2Z" fill="#fff"/><path d="M35.37,31.28a7,7,0,0,0-8.13-.17,14.89,14.89,0,0,1,9.82,8.34l-4.79,2.9c-.59-4.72-3.19-7.59-7.06-9.64l-2.15,2a8.61,8.61,0,0,0,.26-2.31c-.09-.5-.6-.92-.73-1.12a11.21,11.21,0,0,0,2.29-1.66c2.62-3.15,8.27-4.3,12.17-2.25Z" fill="#fff"/><path d="M131.87,29.43l5.42-2.5c.43,6.8-.21,13.15-3,19.25C134.36,40.54,134.36,34.9,131.87,29.43Z" fill="#fff"/><path d="M23.83,42.6c5.05,2.35,9.23,1.28,13.26-1.83.16,2.37-.49,4.3-2.44,5.13a60.48,60.48,0,0,1-7.83,2.35,1.29,1.29,0,0,1-1.05-.62C25.12,46.14,24.59,44.61,23.83,42.6Z" fill="#fff"/><path d="M50.84,38.12l-6.62-.71,2-6.23A10.86,10.86,0,0,1,50.84,38.12Z" fill="#fff"/><path d="M44.42,46.1l-4.94,2.66L40,39.65l.43,0Z" fill="#fff"/><path d="M115.49,52.47l1.68-3.07L119,52.3l1.09-3,.69.24L119.47,55l-.84.07-1.39-4c-.4,1.26-.62,2.1-.94,2.91a3.91,3.91,0,0,1-.7.9c-.29-.31-.75-.58-.85-.94-.39-1.44-.66-2.91-1-4.37l.68-.18Z" fill="#fff"/><path d="M136.22,53.09l.94,1.52-.46.4-2.83-2.74-.68,2.6-.5-.07V49.12a24.64,24.64,0,0,1,4,1.16C136.88,50.37,136.44,51.85,136.22,53.09Z" fill="#fff"/><path d="M98.76,49a20.07,20.07,0,0,1,3.88,1.27c.25.14-.23,1.58-.43,2.82l.92,1.52-.47.4L99.8,52.22l-.62,2.59h-.42Z" fill="#fff"/><path d="M87.3,54.78V49.51c1.39,0,3.26-1,3.83,1.21.52,2-1.29,2-2.74,2.14l-.54,2Z" fill="#fff"/><path d="M131.2,55.1c-1.5-2.07-3-1.92-4.5,0l-.38-.41c.63-1.58,1.21-3.19,2-4.73.08-.18,1.32-.16,1.43.06.73,1.5,1.3,3.07,1.93,4.62Z" fill="#fff"/><path d="M97.4,52.14a2.48,2.48,0,0,1-2.58,2.8,2.59,2.59,0,0,1-2.72-2.72,2.62,2.62,0,0,1,2.74-2.91A2.5,2.5,0,0,1,97.4,52.14Zm-.25,0c-1.09-.91-1.71-1.81-2.4-1.87-.46-.05-1.48,1.12-1.45,1.7,0,.73.9,1.41,1.41,2.11Z" fill="#fff"/><path d="M81.94,53.08c1,.1,1.84,2.06,3.06.27-.61-1.43-3.7-.54-3-3a2,2,0,0,1,1.58-1,7.77,7.77,0,0,1,2.27.82l-.22.52-3.14-.57c1.16,1.87,4.16,1.12,3.33,3.64-.19.57-1.51,1.07-2.31,1.07s-1.3-.81-1.94-1.26Z" fill="#fff"/><path d="M110.05,50.24c.71,1.73,3.62,1.07,2.8,3.58-.19.56-1.53,1-2.34,1-.61,0-1.22-.83-1.64-1.56,1.12.13,2,1.75,3.15.06-.68-1.41-3.55-.57-3-2.94a1.94,1.94,0,0,1,1.52-1,8.51,8.51,0,0,1,2.38.75l-.19.62Z" fill="#fff"/><path d="M122.56,51.26l2.72.59v.45a11.26,11.26,0,0,0-1.85.18c-.32.07-.56.43-.84.65.29.3.53.77.87.87a11.81,11.81,0,0,0,2.07.19l0,.5h-3.73V49.53h3.51l.07.36-2.81.64Z" fill="#fff"/><path d="M106,55c-1.8-1.39.91-4.42-2.13-5.34h4.7C105,50.54,107.14,53.26,106,55Z" fill="#fff"/></svg>