<svg id="Layer_1" data-name="Layer 1" xmlns="http://www.w3.org/2000/svg" width="50" height="50" viewBox="0 0 50 50"><title>search</title><path d="M19.29,26.49a14.85,14.85,0,1,1,1.9,2.32l-2.35,2.35,2.08,2.07L8.52,45.63a2.93,2.93,0,0,1-4.15-4.15L15.75,30.1" fill="none" stroke="#1d90cd" stroke-miterlimit="10"/><path d="M16.76,31.22a1.51,1.51,0,0,0-2.13-2.13,1.51,1.51,0,1,0,2.13,2.13Z" fill="#1d90cd"/><path d="M25.64,10.29a10.05,10.05,0,1,1-1.08,15.15" fill="none" stroke="#ff901e" stroke-miterlimit="10"/><path d="M26.68,11.4a1.5,1.5,0,1,1-1.94-2.3,1.5,1.5,0,0,1,1.94,2.3Z" fill="#ff901e"/></svg>