<svg id="Layer_1" data-name="Layer 1" xmlns="http://www.w3.org/2000/svg" width="160" height="60" viewBox="0 0 160 60"><title>selectcar</title><path d="M107.72,50.49c-.16-.14-.33-.28-.49-.44q-1.65-1.65-3.29-3.32c-.08-.08-.15-.17-.28-.32a2.49,2.49,0,0,0-.06.39v3.57h-.86c0-.1,0-.21,0-.31,0-1.5,0-3,0-4.49a1.66,1.66,0,0,1,0-.32.44.44,0,0,1,.7-.26,1.48,1.48,0,0,1,.3.26l3.5,3.46a1.39,1.39,0,0,0,.2.17V45h.86c0,.11,0,.22,0,.34,0,1.5,0,3,0,4.51a.86.86,0,0,1-.29.68Z" fill="#fff"/><path d="M153.51,25.16l-1.69-.2c-2.28-.23-4.56-.5-6.84-.67-3.4-.24-6.8-.39-10.2-.61-2.7-.17-5.41-.34-8.1-.59-3.05-.28-6.09-.62-9.12-1q-3.61-.45-7.22-1a39.32,39.32,0,0,1-7.88-2.3c-2.47-1-4.93-1.94-7.42-2.82a52.54,52.54,0,0,0-8.76-2.13c-3.29-.55-6.6-.84-9.91-1.08s-6.86-.39-10.29-.29c-2.29.07-4.58.23-6.86.41a95.52,95.52,0,0,0-12.36,1.87,114.44,114.44,0,0,0-20.8,6.47,1.35,1.35,0,0,0-.45.28l.65.1c3.37.41,6.73.79,10.09,1.23,2.47.32,4.94.7,7.41,1.08a8,8,0,0,1,2.94,1.07l.24.17.11.07,0,.07-1.09-.08c-1.9-.13-3.8-.31-5.71-.39-2.81-.13-5.63-.21-8.44-.29-1.92,0-3.83-.09-5.75-.11-2.44,0-4.89,0-7.33,0q-4.45,0-8.91,0c-1.52,0-3,.06-4.55.09h-.3v-.07L6,24c9.59-3.51,19.31-6.59,29.19-9.17,4.66-1.23,9.35-2.35,14.09-3.2,2.85-.52,5.72-1,8.58-1.37a73.49,73.49,0,0,1,9-.76c2,0,4,0,5.94.06,1.48,0,3,.11,4.43.22,1.76.13,3.52.3,5.27.5A62.46,62.46,0,0,1,90,11.64a67,67,0,0,1,11.23,3.84c2.11.93,4.26,1.77,6.42,2.57a23.32,23.32,0,0,0,5,1.06l5.72.76,5.65.73,6,.73,5.89.71c2.17.27,4.35.52,6.52.83s4.36.65,6.52,1.06c1.44.28,2.85.7,4.27,1.05l.27.1Z" fill="#fff"/><path d="M7.72,42.08V39.64H17.87a5.49,5.49,0,0,0,.91-.07,1.75,1.75,0,0,0,1.46-2.14A1.6,1.6,0,0,0,18.66,36a8.65,8.65,0,0,0-.88,0H11.6a4.05,4.05,0,0,1-3.14-1.29,4,4,0,0,1-.76-4.11,3.54,3.54,0,0,1,2.89-2.4A5.16,5.16,0,0,1,11.7,28h9.74l.41,0v2.4h-.37c-3.13,0-6.25,0-9.37,0a4.81,4.81,0,0,0-.93.09,1.28,1.28,0,0,0-1.1,1.12,3.73,3.73,0,0,0,0,1,1.42,1.42,0,0,0,1.22,1.19,4.18,4.18,0,0,0,.61,0h6.69a5,5,0,0,1,2,.42,3.09,3.09,0,0,1,1.81,2,5.27,5.27,0,0,1,0,2.92A3.57,3.57,0,0,1,19.21,42a7,7,0,0,1-1.12.08l-10,0Z" fill="#fff"/><path d="M154.81,42l-.15,0-2.57,0a.94.94,0,0,1-.77-.33c-.95-1.06-1.91-2.1-2.85-3.16a1.15,1.15,0,0,0-.95-.42c-1.39,0-2.79,0-4.18,0-.48,0-.48,0-.48-.47s0-.88,0-1.31c0-.22.07-.27.27-.27h5.44a5.11,5.11,0,0,0,.95-.1,2.16,2.16,0,0,0,1.71-1.55,3.78,3.78,0,0,0-.06-2.59,2.17,2.17,0,0,0-1.79-1.35,5.74,5.74,0,0,0-.93-.06H141c0,.24,0,.46,0,.68V41.47c0,.5,0,.52-.52.53s-1,0-1.46,0c-.18,0-.25-.05-.25-.24q0-6.2-.05-12.38c0-.35,0-.71,0-1.06,0-.15.06-.22.21-.21H149a4.49,4.49,0,0,1,4.55,3.79,5.87,5.87,0,0,1-.53,4,4,4,0,0,1-1.88,1.73l-.39.2c.7.71,1.37,1.4,2,2.07s1.37,1.33,2.06,2Z" fill="#fff"/><path d="M55.52,39.64H65.58V42H53.09v-14c4.15,0,8.31,0,12.48,0,0,.12,0,.2,0,.28v2.11H55.83c-.28,0-.34.08-.34.34,0,2.83,0,5.65,0,8.48C55.5,39.38,55.51,39.5,55.52,39.64Z" fill="#fff"/><path d="M37.19,30.46h-10v9.17H37.23V42H24.76c0-.11,0-.2,0-.29q0-6.7,0-13.4c0-.24.08-.32.32-.32H37c.19,0,.26,0,.26.26,0,.64,0,1.28,0,1.92C37.21,30.28,37.2,30.35,37.19,30.46Z" fill="#fff"/><path d="M81.73,28v2.42h-7.5A4.3,4.3,0,0,0,71,31.81,4.4,4.4,0,0,0,69.77,35a4.37,4.37,0,0,0,4.56,4.68h7.39v2.44H79.91c-1.61,0-3.21,0-4.82,0a7.37,7.37,0,0,1-5.31-1.61,6.87,6.87,0,0,1-2.33-4.21,7.37,7.37,0,0,1,.77-5,6.3,6.3,0,0,1,5-3.22A10.12,10.12,0,0,1,74.41,28h7.32Z" fill="#fff"/><path d="M136.9,42c-.45,0-.82,0-1.2,0s-.76,0-1.15,0a.65.65,0,0,1-.65-.36c-.53-.93-1.09-1.84-1.62-2.77a.74.74,0,0,0-.73-.41H125.9a3.82,3.82,0,0,1-.43,0l.2-.38c.22-.37.44-.74.64-1.11a.64.64,0,0,1,.61-.36h4c-1.06-1.84-2.12-3.59-3.2-5.4-.14.2-.25.34-.34.5-1.95,3.3-3.91,6.6-5.85,9.91a.72.72,0,0,1-.72.4c-.62,0-1.24,0-1.87,0l-.25,0a2.87,2.87,0,0,1,.14-.3l7.72-12.85a4.17,4.17,0,0,1,.29-.44,1.14,1.14,0,0,1,1.91,0c.52.8,1,1.62,1.49,2.44l6.41,10.64Z" fill="#fff"/><path d="M113.21,28.1c1.28,0,2.55,0,3.83,0,.25,0,.32.08.31.32,0,.57,0,1.13,0,1.69,0,.24-.1.31-.31.32h-7.25a4.3,4.3,0,0,0-4.34,3.77,4.84,4.84,0,0,0,1.61,4.57,3.56,3.56,0,0,0,2.35.89c2.52,0,5,0,7.55.05.37,0,.38,0,.38.39s0,1.09,0,1.63c0,.19-.06.27-.26.27l-6,0c-.8,0-1.61,0-2.4-.1a5.82,5.82,0,0,1-3.41-1.63,6.75,6.75,0,0,1-2.2-4.49,7.31,7.31,0,0,1,1.13-5,6.2,6.2,0,0,1,4-2.57,14.27,14.27,0,0,1,2.85-.16C111.77,28.09,112.49,28.1,113.21,28.1Z" fill="#fff"/><path d="M96.05,30.46h-5.3V42.05H88.32V30.48H83v-2.4h13v2.38Z" fill="#fff"/><path d="M51.26,39.63c0,.79,0,1.52,0,2.26,0,.06-.09.13-.15.16s-.12,0-.19,0H39.76c-.37,0-.37,0-.37-.37,0-4.42,0-8.85,0-13.28,0-.25.07-.35.32-.35h2.11V39.63Z" fill="#fff"/><path d="M124.88,48l0,0c-.09-.61-.08-.63.53-.63h29.69V48Z" fill="#fff"/><path d="M37.68,47.33c0,.06,0,.07,0,.09.07.6.07.6-.53.6H7.84c-.12,0-.32,0-.34-.07a1.88,1.88,0,0,1,0-.53s.09-.07.15-.08h30Z" fill="#fff"/><path d="M121.78,45v.9h-2.36a5,5,0,0,0-.87,0,1.69,1.69,0,0,0-1.38,1.85,1.67,1.67,0,0,0,1.65,1.66c.71,0,1.43,0,2.14,0,.16,0,.24-.05.24-.2v-1c0-.15-.09-.18-.23-.18H118.8V47.3h3.32c0,.24,0,.49,0,.73,0,.7,0,1.41,0,2.11,0,.18,0,.26-.24.26-1.06,0-2.12,0-3.18,0a2.63,2.63,0,0,1-2.48-3A2.45,2.45,0,0,1,118,45.08a3.27,3.27,0,0,1,.82-.09C119.82,45,120.79,45,121.78,45Z" fill="#fff"/><path d="M79.85,50.38v-.91h4c.47,0,.76-.2.83-.56A.7.7,0,0,0,84,48H81.48a3.15,3.15,0,0,1-.61-.06,1.43,1.43,0,0,1-1.1-1.58A1.34,1.34,0,0,1,81.05,45c1.4,0,2.81,0,4.24,0v.89H81.54c-.49,0-.77.2-.8.6a.62.62,0,0,0,.68.75l2.56,0a2.6,2.6,0,0,1,.4,0,1.35,1.35,0,0,1,1.22,1.59,1.44,1.44,0,0,1-1.35,1.49l-.43,0H80.24Z" fill="#fff"/><path d="M65.05,35.93H57.33v-2h7.41c.24,0,.32.08.31.32C65,34.79,65.05,35.35,65.05,35.93Z" fill="#fff"/><path d="M36.68,35.93H29v-2h7.69Z" fill="#fff"/><path d="M72,50.4c-.33,0-.63,0-.93,0a.45.45,0,0,1-.26-.2,6.13,6.13,0,0,1-.49-.82.63.63,0,0,0-.65-.36c-.63,0-1.25,0-1.87,0h-.25a6.35,6.35,0,0,1,.41-.66s.16-.06.24-.06h1.4a12.81,12.81,0,0,0-1.19-2.06c-.24.41-.47.78-.69,1.16-.52.88-1,1.76-1.55,2.65a.6.6,0,0,1-.67.36,3.6,3.6,0,0,0-.58,0c.05-.12.09-.2.13-.28q1.47-2.46,3-4.9c.25-.42.66-.44.91,0l3,5A.91.91,0,0,1,72,50.4Z" fill="#fff"/><path d="M53.44,49.47h3.85v.91H52.52V45h4.77v.87H53.44Z" fill="#fff"/><path d="M44.6,49.47v.9H40.09V45c.25,0,.49,0,.74,0,.05,0,.13.17.13.26v4.22Z" fill="#fff"/><path d="M93.66,50.4V45h.88a2.65,2.65,0,0,1,0,.27c0,1.6,0,3.21,0,4.81,0,.24-.07.32-.29.31Z" fill="#fff"/><path d="M54.15,48v-.7h2.92V48Z" fill="#fff"/></svg>