<svg id="Layer_1" data-name="Layer 1" xmlns="http://www.w3.org/2000/svg" width="1000" height="1000" viewBox="0 0 1000 1000"><g opacity="0.5"><path d="M47,498.5A443.88,443.88,0,0,1,60.32,390.88" fill="none" stroke="#1d90cd" stroke-linecap="round" stroke-linejoin="round" stroke-width="2"/><polygon points="64.98 396.23 65 373.79 53.76 393.22 64.98 396.23" fill="#1d90cd"/></g><g opacity="0.5"><path d="M74.36,343.83a444.25,444.25,0,0,1,49.34-96.57" fill="none" stroke="#1d90cd" stroke-linecap="round" stroke-linejoin="round" stroke-width="2"/><polygon points="126.26 253.89 133.95 232.8 116.74 247.21 126.26 253.89" fill="#1d90cd"/></g><g opacity="0.5"><path d="M153,207.85A443.86,443.86,0,0,1,232.39,134" fill="none" stroke="#1d90cd" stroke-linecap="round" stroke-linejoin="round" stroke-width="2"/><polygon points="232.52 141.08 246.97 123.9 225.86 131.56 232.52 141.08" fill="#1d90cd"/></g><g opacity="0.5"><path d="M273.39,107A444.33,444.33,0,0,1,373.27,64.7" fill="none" stroke="#1d90cd" stroke-linecap="round" stroke-linejoin="round" stroke-width="2"/><polygon points="370.96 71.42 390.41 60.22 367.96 60.2 370.96 71.42" fill="#1d90cd"/></g><g opacity="0.5"><path d="M421,53.35a443.83,443.83,0,0,1,108.31-5.56" fill="none" stroke="#1d90cd" stroke-linecap="round" stroke-linejoin="round" stroke-width="2"/><polygon points="524.87 53.31 546.98 49.44 525.89 41.74 524.87 53.31" fill="#1d90cd"/></g><g opacity="0.5"><path d="M578.11,53.45A444.11,444.11,0,0,1,681.78,85.27" fill="none" stroke="#1d90cd" stroke-linecap="round" stroke-linejoin="round" stroke-width="2"/><polygon points="675.7 88.94 697.8 92.86 680.62 78.41 675.7 88.94" fill="#1d90cd"/></g><g opacity="0.5"><path d="M725.68,107.28a443.73,443.73,0,0,1,86.53,65.36" fill="none" stroke="#1d90cd" stroke-linecap="round" stroke-linejoin="round" stroke-width="2"/><polygon points="805.24 174 824.67 185.24 813.47 165.79 805.24 174" fill="#1d90cd"/></g><g opacity="0.5"><path d="M845.93,208.33a444.09,444.09,0,0,1,59,91" fill="none" stroke="#1d90cd" stroke-linecap="round" stroke-linejoin="round" stroke-width="2"/><polygon points="897.88 298.24 912.29 315.45 908.42 293.34 897.88 298.24" fill="#1d90cd"/></g><g opacity="0.5"><path d="M924.38,344.41a444,444,0,0,1,24.28,105.7" fill="none" stroke="#1d90cd" stroke-linecap="round" stroke-linejoin="round" stroke-width="2"/><polygon points="942.44 446.67 950.1 467.77 954.02 445.67 942.44 446.67" fill="#1d90cd"/></g><g opacity="0.5"><path d="M950.1,499.65a444.45,444.45,0,0,1-13.33,107.63" fill="none" stroke="#1d90cd" stroke-linecap="round" stroke-linejoin="round" stroke-width="2"/><polygon points="932.1 601.92 932.08 624.37 943.32 604.94 932.1 601.92" fill="#1d90cd"/></g><g opacity="0.5"><path d="M922.72,654.32a444.55,444.55,0,0,1-49.34,96.58" fill="none" stroke="#1d90cd" stroke-linecap="round" stroke-linejoin="round" stroke-width="2"/><polygon points="870.83 744.27 863.13 765.35 880.34 750.94 870.83 744.27" fill="#1d90cd"/></g><g opacity="0.5"><path d="M844.09,790.3a443.21,443.21,0,0,1-79.4,73.87" fill="none" stroke="#1d90cd" stroke-linecap="round" stroke-linejoin="round" stroke-width="2"/><polygon points="764.56 857.07 750.12 874.25 771.22 866.6 764.56 857.07" fill="#1d90cd"/></g><g opacity="0.5"><path d="M723.69,891.19a443.76,443.76,0,0,1-99.87,42.26" fill="none" stroke="#1d90cd" stroke-linecap="round" stroke-linejoin="round" stroke-width="2"/><polygon points="626.13 926.73 606.68 937.93 629.12 937.96 626.13 926.73" fill="#1d90cd"/></g><g opacity="0.5"><path d="M576.05,944.81a443.73,443.73,0,0,1-108.3,5.55" fill="none" stroke="#1d90cd" stroke-linecap="round" stroke-linejoin="round" stroke-width="2"/><polygon points="472.21 944.84 450.1 948.72 471.19 956.41 472.21 944.84" fill="#1d90cd"/></g><g opacity="0.5"><path d="M419,944.7A444.11,444.11,0,0,1,315.3,912.88" fill="none" stroke="#1d90cd" stroke-linecap="round" stroke-linejoin="round" stroke-width="2"/><polygon points="321.39 909.21 299.29 905.29 316.47 919.74 321.39 909.21" fill="#1d90cd"/></g><g opacity="0.5"><path d="M271.41,890.87a443.5,443.5,0,0,1-86.54-65.36" fill="none" stroke="#1d90cd" stroke-linecap="round" stroke-linejoin="round" stroke-width="2"/><polygon points="191.84 824.15 172.41 812.91 183.62 832.36 191.84 824.15" fill="#1d90cd"/></g><g opacity="0.5"><path d="M151.15,789.83a443.68,443.68,0,0,1-59-91" fill="none" stroke="#1d90cd" stroke-linecap="round" stroke-linejoin="round" stroke-width="2"/><polygon points="99.2 699.91 84.79 682.71 88.67 704.82 99.2 699.91" fill="#1d90cd"/></g><g opacity="0.5"><path d="M72.71,653.74A444,444,0,0,1,48.43,548.05" fill="none" stroke="#1d90cd" stroke-linecap="round" stroke-linejoin="round" stroke-width="2"/><polygon points="54.64 551.48 46.99 530.38 43.07 552.49 54.64 551.48" fill="#1d90cd"/></g></svg>