<svg id="Layer_1" data-name="Layer 1" xmlns="http://www.w3.org/2000/svg" width="160" height="60" viewBox="0 0 160 60"><title>sig</title><path d="M118.57,13h3.15a.77.77,0,0,0,.19.05l1.55.06a1.24,1.24,0,0,1,.93.39,2.48,2.48,0,0,1,.27.48v.17c0,.17-.09.35-.13.52-.31,1.31-.62,2.62-.94,3.92a2.57,2.57,0,0,1-.88,1.33,1,1,0,0,1-1.53-.32,3.38,3.38,0,0,1-.18-.85c0-.42,0-.85-.13-1.26a2,2,0,0,0-2.11-1.73,12.12,12.12,0,0,0-1.59.1,31.56,31.56,0,0,0-8.69,2.37,18.43,18.43,0,0,0-5.34,3.35,24.19,24.19,0,0,0-5.79,8.4A16.48,16.48,0,0,0,96.13,35a13.77,13.77,0,0,0,.65,5.22A9.42,9.42,0,0,0,98,43a3.06,3.06,0,0,0,2,1.31,3.66,3.66,0,0,0,2.09-.32,9.3,9.3,0,0,0,4-3.19,15.79,15.79,0,0,0,3-7.47,6.06,6.06,0,0,0-.2-2.61,2.69,2.69,0,0,0-2.79-2,13.88,13.88,0,0,0-3.27.41,2.11,2.11,0,0,1-.71,0,.38.38,0,0,1-.39-.47,1.37,1.37,0,0,1,.13-.49c.29-.57.6-1.12.9-1.69a.31.31,0,0,1,.32-.18h20.85c0,.29-.08.54-.13.79a17.8,17.8,0,0,1-1.58,4.42,31.44,31.44,0,0,1-4.93,7,25.69,25.69,0,0,1-9.75,6.77A26.33,26.33,0,0,1,99.29,47a17.92,17.92,0,0,1-2.07,0c-.83-.06-1.66-.13-2.48-.25a16.79,16.79,0,0,1-6.22-2.17,13.64,13.64,0,0,1-5.24-5.31l-.08-.1c0,.09-.06.15-.08.21-.84,2.36-1.67,4.71-2.5,7.07a.26.26,0,0,1-.3.21H67.2l.35-3.08-.16.07c-1.13.45-2.25.94-3.4,1.34a28.15,28.15,0,0,1-7,1.49c-1.75.14-3.51.2-5.27.22-3.47,0-6.93,0-10.4,0-1.51,0-3,0-4.53-.08a1.25,1.25,0,0,1-1.21-.68,2.11,2.11,0,0,1-.2-1.13,7,7,0,0,1,.15-.9l.93-4.25c.17-.73.34-1.45.53-2.17a1.69,1.69,0,0,1,.53-.86.78.78,0,0,1,1.27.27,1.41,1.41,0,0,1,.15.45c.06.48.12,1,.17,1.45.11,1.29.22,2.59.32,3.88A1.53,1.53,0,0,0,40,43.78a2.66,2.66,0,0,0,1.39.54c.73.08,1.47.12,2.21.15a43.47,43.47,0,0,0,7.48-.19,8.71,8.71,0,0,0,2.78-.76,3.67,3.67,0,0,0,1.71-5.36,8.47,8.47,0,0,0-1.9-2.35c-1.14-1-2.31-2-3.46-3-2.17-1.86-4.37-3.69-6.51-5.59a8.94,8.94,0,0,1-3-5.33,5.29,5.29,0,0,1,1.13-4.37,7.9,7.9,0,0,1,3-2.13,23.68,23.68,0,0,1,6.55-1.79,50.2,50.2,0,0,1,7.25-.51q15.78,0,31.56,0h.23l-2.81,9.58.13-.09c.33-.3.64-.61,1-.89a27.71,27.71,0,0,1,6.27-3.86,54.15,54.15,0,0,1,18-4.5c1.83-.16,3.66-.21,5.49-.31A.31.31,0,0,0,118.57,13ZM70.08,37.17h.06c.06-.14.13-.27.18-.4a73.42,73.42,0,0,0,2.55-7.21,35.12,35.12,0,0,0,1.51-6.87,6.45,6.45,0,0,0-.55-3.49,6.28,6.28,0,0,0-3-2.77,12.24,12.24,0,0,0-4.12-1.07,24.91,24.91,0,0,0-4.65-.09A17.46,17.46,0,0,0,58,16a7,7,0,0,0-2.49,1.25,2.46,2.46,0,0,0-.91,2.44,4.47,4.47,0,0,0,.66,1.65A13,13,0,0,0,58,24.6c1,.86,2.12,1.66,3.22,2.43,1.64,1.15,3.32,2.24,5,3.37a8.43,8.43,0,0,1,3.71,5.76C70,36.49,70,36.83,70.08,37.17Zm16.83-17a5.65,5.65,0,1,0-5.69,5.64A5.65,5.65,0,0,0,86.91,20.18Z" fill="#fff"/></svg>